<svg width="273" height="68" viewBox="0 0 273 68" fill="none" xmlns="http://www.w3.org/2000/svg">
<path d="M60.8317 50.7303L31.8665 66.7107C31.1794 67.0898 30.3446 67.0835 29.6633 66.6942L1.88517 50.8215L1 50.3157V49.9339V18.9605C1 18.1587 1.4267 17.4175 2.12008 17.0148L29.1734 1.30429C29.5166 1.10498 29.9064 1 30.3033 1H30.8157C31.4567 1 32.0672 1.27335 32.4941 1.75144L33.3772 2.74051C33.7453 3.15285 33.9488 3.68629 33.9488 4.23907V27.8656C33.9488 28.6917 33.4961 29.4514 32.7696 29.8445L49.8713 20.6098C51.4245 19.7711 51.4511 17.5522 49.9186 16.6764L39.6883 10.8307C38.9872 10.4301 38.5546 9.68401 38.5546 8.87657C38.5546 7.16793 40.3841 6.08104 41.8835 6.90038L60.4123 17.0254C61.1343 17.4199 61.5834 18.177 61.5834 18.9998V40.2101C61.5834 42.2921 58.999 43.2573 57.6342 41.6851L56.8199 40.747C56.4646 40.3378 56.269 39.814 56.269 39.2721V27.1696C56.269 25.4774 54.4714 24.3909 52.9732 25.1774L36.1385 34.0154L60.853 48.196C61.3047 48.4553 61.5834 48.9363 61.5834 49.4572C61.5834 49.9868 61.2954 50.4745 60.8317 50.7303Z" fill="#FF5E9B"/>
<path d="M30.7602 30.9295L60.853 48.196C61.3047 48.4553 61.5834 48.9363 61.5834 49.4572V49.4572C61.5834 49.9868 61.2954 50.4745 60.8317 50.7303L31.8665 66.7107C31.1794 67.0898 30.3446 67.0835 29.6633 66.6942L1 50.3157M30.7602 30.9295L29.9191 31.6473C28.7587 32.6374 28.8991 34.4708 30.1966 35.2728L50.1792 47.6233C51.6392 48.5257 51.5919 50.6647 50.0935 51.5016L37.2427 58.6792C35.7551 59.51 33.9197 58.4502 33.8957 56.7465L33.614 36.7325C33.6021 35.885 34.0675 35.1026 34.8179 34.7087L52.9732 25.1774C54.4714 24.3909 56.269 25.4774 56.269 27.1696V39.2721C56.269 39.814 56.4646 40.3378 56.8199 40.747L57.6342 41.6851C58.999 43.2573 61.5834 42.2921 61.5834 40.2101V18.9998C61.5834 18.177 61.1343 17.4199 60.4123 17.0254L41.8835 6.90038C40.3841 6.08104 38.5546 7.16793 38.5546 8.87657V8.87657C38.5546 9.68401 38.9872 10.4301 39.6883 10.8307L49.9186 16.6764C51.4511 17.5522 51.4245 19.7711 49.8713 20.6098L30.7602 30.9295ZM30.7602 30.9295L11.6905 20.6321C10.1286 19.7887 10.1127 17.5535 11.6624 16.688L24.2245 9.67165C25.7243 8.83398 27.5716 9.91817 27.5716 11.636V27.8656C27.5716 28.6924 28.0251 29.4526 28.7526 29.8454L30.7602 30.9295ZM30.7602 30.9295L32.7679 29.8454C33.4954 29.4526 33.9488 28.6924 33.9488 27.8656V4.23907C33.9488 3.68629 33.7454 3.15285 33.3772 2.74051L32.4941 1.75144C32.0672 1.27335 31.4567 1 30.8157 1H30.3033C29.9064 1 29.5166 1.10498 29.1734 1.30429L2.12008 17.0148C1.4267 17.4175 1 18.1587 1 18.9605V50.3157M1 50.3157L1.88517 50.8215C3.38515 51.6786 5.25146 50.5955 5.25146 48.8679V27.1651C5.25146 25.474 7.04708 24.3874 8.54519 25.1718L27.4282 35.0594C28.1698 35.4477 28.6345 36.2156 28.6345 37.0527V56.7811C28.6345 58.4768 26.8299 59.5631 25.3314 58.7694L8.08577 49.6354L5.74716 48.5129C5.44419 48.3675 5.25146 48.0612 5.25146 47.7252V47.7252C5.25146 47.0576 4.53318 46.6366 3.95071 46.9628L3.12573 47.4247L2.15066 47.9708C1.44009 48.3687 1 49.1195 1 49.9339V50.3157Z" stroke="#FF7EAF" stroke-width="0.75" stroke-linejoin="round"/>
<path d="M33.5375 32.1208C33.5058 32.138 33.4728 32.1573 33.4388 32.1775C33.3886 32.2232 33.3404 32.2671 33.2956 32.3038C33.0579 32.4987 32.7738 32.6736 32.5528 32.8858C32.469 32.9662 32.7662 32.7871 32.8744 32.741C33.2775 32.569 33.6926 32.4355 34.1209 32.3339C34.4715 32.2508 34.8264 32.1921 35.1854 32.1563C35.3901 32.1359 35.3362 32.1484 35.1854 32.2437C34.8954 32.427 34.599 32.5908 34.2889 32.741C34.1248 32.8204 33.8297 32.9033 33.7026 33.0524C33.6453 33.1197 33.6324 33.2082 33.5688 33.2765C33.3357 33.5266 33.7737 33.3779 33.8762 33.3502C34.0676 33.2986 34.2349 33.2171 34.4132 33.1517C34.4937 33.1221 34.5764 33.0958 34.6645 33.077C34.9022 33.0263 34.4331 33.3096 34.3999 33.3038C34.3308 33.2917 34.3514 33.2309 34.4132 33.1517C34.2349 33.2171 34.0676 33.2986 33.8762 33.3502C33.7737 33.3779 33.3357 33.5266 33.5688 33.2765C33.6324 33.2082 33.6453 33.1197 33.7026 33.0524C33.8297 32.9033 34.1248 32.8204 34.2889 32.741C34.599 32.5908 34.8954 32.427 35.1854 32.2437C35.3362 32.1484 35.3901 32.1359 35.1854 32.1563C34.8264 32.1921 34.4715 32.2508 34.1209 32.3339C33.6926 32.4355 33.2775 32.569 32.8744 32.741C32.7662 32.7871 32.469 32.9662 32.5528 32.8858C32.7738 32.6736 33.0579 32.4987 33.2956 32.3038C33.3404 32.2671 33.3886 32.2232 33.4388 32.1775C33.5418 32.084 33.6535 31.9831 33.7623 31.9213C33.8502 31.8715 33.6263 32.0726 33.5375 32.1208Z" fill="#FF5E9B"/>
<path d="M32.9541 32.3913C33.1565 32.3697 33.3663 32.2137 33.5375 32.1208C33.6263 32.0726 33.8502 31.8715 33.7623 31.9213C33.6003 32.0132 33.4321 32.1919 33.2956 32.3038C33.0579 32.4987 32.7738 32.6736 32.5528 32.8858C32.469 32.9662 32.7662 32.7871 32.8744 32.741C33.2775 32.569 33.6926 32.4355 34.1209 32.3339C34.4715 32.2508 34.8264 32.1921 35.1854 32.1563C35.3901 32.1359 35.3362 32.1484 35.1854 32.2437C34.8954 32.427 34.599 32.5908 34.2889 32.741C34.1248 32.8204 33.8297 32.9033 33.7026 33.0524C33.6453 33.1197 33.6324 33.2082 33.5688 33.2765C33.3357 33.5266 33.7737 33.3779 33.8762 33.3502C34.154 33.2752 34.3811 33.1375 34.6645 33.077C34.9022 33.0263 34.4331 33.3096 34.3999 33.3038C34.1779 33.2651 34.8817 32.7229 34.9008 32.6863" stroke="#FF5D9B" stroke-width="2.25" stroke-linecap="round"/>
<path d="M31.6215 31.5551C31.6937 31.5527 32.2267 31.458 32.02 31.5168C31.8754 31.558 31.7213 31.6024 31.5931 31.6808C31.188 31.9282 30.8725 32.2674 30.4262 32.4594C30.1591 32.5744 29.8676 32.619 29.6207 32.7572C29.4639 32.845 29.4825 33.209 29.5496 33.3747C29.7117 33.7748 29.871 34.1024 30.1359 34.4457C30.2563 34.6018 30.4465 34.6817 30.5713 34.8282C30.6777 34.953 30.782 35.0825 30.9043 35.1943C31.102 35.3751 31.4043 35.4284 31.5988 35.6151C31.7221 35.7334 31.8898 35.9279 31.9687 36.0795C32.0966 36.3249 32.1218 36.609 32.3387 36.8172" stroke="#FF5D9B" stroke-width="2.25" stroke-linecap="round"/>
<path d="M30.4528 32.1635C30.8693 32.1843 31.1337 32.1944 30.8481 32.1944C30.715 32.1944 30.5835 32.182 30.4528 32.1635Z" fill="#FF5E9B"/>
<path d="M26.8066 31.7518C27.0336 31.8918 27.3937 31.8468 27.6491 31.872C28.1232 31.9188 28.6018 31.983 29.0721 32.0578C29.658 32.1509 31.4419 32.1944 30.8481 32.1944C30.3171 32.1944 29.8092 31.9977 29.2884 31.9977C29.146 31.9977 29.0457 31.8993 28.907 31.8993" stroke="#FF5D9B" stroke-width="2.25" stroke-linecap="round"/>
<path d="M28.2402 33.6207C28.2642 34.2193 29.0736 34.2359 29.2876 34.7054C29.4351 35.0291 29.5792 35.1989 29.8796 35.3912" stroke="#FF5D9B" stroke-width="2.25" stroke-linecap="round"/>
<path d="M34.5938 33.3748C34.8258 33.3748 35.288 33.1951 35.3622 32.9814" stroke="#FF5D9B" stroke-width="2.25" stroke-linecap="round"/>
<path d="M3.46616 47.9944C3.46538 48.0046 3.46055 48.0378 3.45273 48.0872C3.41151 47.8255 3.35542 47.5664 3.34663 47.3004C3.33218 46.8635 3.46368 45.5665 3.52309 45.9999C3.61163 46.6459 3.51607 47.3495 3.46616 47.9944Z" fill="#FF5E9B"/>
<path d="M2.93395 45.7185C2.93395 45.1652 2.83343 46.8244 2.8628 47.3769C2.8847 47.7891 2.99189 48.179 3.05633 48.5845C3.08816 48.7849 3.06672 49.0963 3.21286 49.2621C3.25036 49.3047 3.46056 48.0668 3.46616 47.9944C3.51607 47.3495 3.61163 46.6459 3.52309 45.9999C3.46368 45.5665 3.33218 46.8635 3.34663 47.3004C3.36079 47.7285 3.49747 48.1389 3.49747 48.5709C3.49747 49.0575 3.66356 47.6088 3.691 47.1228C3.70463 46.8816 3.70239 46.3407 3.70239 46.8715C3.70239 47.1757 3.70239 47.4798 3.70239 47.784" stroke="#FF5D9B" stroke-width="2.25" stroke-linecap="round"/>
<path d="M5.11514 50.3312C5.28823 50.3917 5.36989 50.4248 5.2263 50.3854C5.18344 50.3736 5.14696 50.3549 5.11514 50.3312C5.00366 50.2483 4.94939 50.1046 4.87907 49.9865C4.78801 49.8335 4.69204 49.678 4.58879 49.5278C4.47781 49.437 4.37056 49.3399 4.26432 49.2379C4.24272 49.2171 3.94098 48.839 4.01956 48.839C4.06715 48.839 4.29261 49.143 4.32694 49.1832C4.41964 49.292 4.50653 49.4082 4.58879 49.5278C4.69204 49.678 4.78801 49.8335 4.87907 49.9865C4.94939 50.1046 5.00366 50.2483 5.11514 50.3312Z" fill="#FF5E9B"/>
<path d="M5.39137 51.2269C5.06005 50.9324 4.60618 50.6784 4.21025 50.4646C4.06691 50.3872 3.83367 50.2548 3.75203 50.1176C3.71697 50.0587 3.66112 50.0114 3.62965 49.951C3.59934 49.8928 3.76462 49.9636 3.83172 49.9728C3.94273 49.9881 4.05667 49.9945 4.16471 50.0247C4.52506 50.1256 5.58722 50.4844 5.2263 50.3854C5.03334 50.3325 4.96946 50.1383 4.87907 49.9865C4.71546 49.7116 4.536 49.4285 4.32694 49.1832C4.29261 49.143 4.06715 48.839 4.01956 48.839C3.94098 48.839 4.24272 49.2171 4.26432 49.2379C4.56116 49.5228 4.86596 49.7698 5.23768 49.9482" stroke="#FF5D9B" stroke-width="2.25" stroke-linecap="round"/>
<path d="M3.03549 49.5053C3.02406 49.3956 2.93959 49.3131 2.90457 49.2103C2.8437 49.0315 2.83914 48.832 2.77934 48.6474C2.66774 48.3031 2.57443 48.0374 2.57443 47.6693C2.57443 47.6546 2.42854 48.281 2.36951 48.4343C2.28397 48.6565 2.21582 48.7206 2.21582 48.9644" stroke="#FF5D9B" stroke-width="2.25" stroke-linecap="round"/>
<path d="M86.185 41V29.66H82.1125V26.51H94.4875V29.66H90.415V41H86.185ZM99.7834 41.225C98.5384 41.225 97.4359 41.0225 96.4759 40.6175C95.5309 40.1975 94.7884 39.575 94.2484 38.75C93.7234 37.925 93.4609 36.905 93.4609 35.69C93.4609 33.995 93.9409 32.645 94.9009 31.64C95.8609 30.62 97.2934 30.11 99.1984 30.11C100.938 30.11 102.296 30.5525 103.271 31.4375C104.261 32.3225 104.756 33.53 104.756 35.06V36.9275H97.3534C97.5484 37.4975 97.9309 37.9025 98.5009 38.1425C99.0709 38.3825 99.8434 38.5025 100.818 38.5025C101.433 38.5025 102.048 38.45 102.663 38.345C103.293 38.225 103.796 38.09 104.171 37.94V40.4825C103.121 40.9775 101.658 41.225 99.7834 41.225ZM97.3534 34.6325H101.111V34.25C101.111 33.83 100.976 33.485 100.706 33.215C100.451 32.945 99.9934 32.81 99.3334 32.81C98.5984 32.81 98.0809 32.9675 97.7809 33.2825C97.4959 33.5825 97.3534 34.0325 97.3534 34.6325ZM110.378 41.225C109.463 41.225 108.601 41.1575 107.791 41.0225C106.996 40.9025 106.366 40.745 105.901 40.55V37.5125C106.426 37.7525 107.048 37.94 107.768 38.075C108.503 38.21 109.126 38.2775 109.636 38.2775C110.176 38.2775 110.581 38.2625 110.851 38.2325C111.136 38.2025 111.278 38.075 111.278 37.85C111.278 37.595 111.031 37.4 110.536 37.265C110.041 37.13 109.418 36.935 108.668 36.68C107.693 36.335 106.966 35.93 106.486 35.465C106.006 35 105.766 34.325 105.766 33.44C105.766 32.375 106.186 31.5575 107.026 30.9875C107.866 30.4025 109.186 30.11 110.986 30.11C111.676 30.11 112.388 30.1625 113.123 30.2675C113.858 30.3725 114.436 30.4925 114.856 30.6275V33.5975C114.406 33.4025 113.911 33.26 113.371 33.17C112.846 33.08 112.366 33.035 111.931 33.035C111.451 33.035 111.023 33.0575 110.648 33.1025C110.273 33.1475 110.086 33.275 110.086 33.485C110.086 33.725 110.296 33.8975 110.716 34.0025C111.151 34.1075 111.728 34.2725 112.448 34.4975C113.258 34.7375 113.888 35 114.338 35.285C114.803 35.57 115.126 35.915 115.306 36.32C115.501 36.725 115.598 37.2275 115.598 37.8275C115.598 38.9075 115.156 39.7475 114.271 40.3475C113.401 40.9325 112.103 41.225 110.378 41.225ZM120.771 41.225C119.856 41.225 118.994 41.1575 118.184 41.0225C117.389 40.9025 116.759 40.745 116.294 40.55V37.5125C116.819 37.7525 117.441 37.94 118.161 38.075C118.896 38.21 119.519 38.2775 120.029 38.2775C120.569 38.2775 120.974 38.2625 121.244 38.2325C121.529 38.2025 121.671 38.075 121.671 37.85C121.671 37.595 121.424 37.4 120.929 37.265C120.434 37.13 119.811 36.935 119.061 36.68C118.086 36.335 117.359 35.93 116.879 35.465C116.399 35 116.159 34.325 116.159 33.44C116.159 32.375 116.579 31.5575 117.419 30.9875C118.259 30.4025 119.579 30.11 121.379 30.11C122.069 30.11 122.781 30.1625 123.516 30.2675C124.251 30.3725 124.829 30.4925 125.249 30.6275V33.5975C124.799 33.4025 124.304 33.26 123.764 33.17C123.239 33.08 122.759 33.035 122.324 33.035C121.844 33.035 121.416 33.0575 121.041 33.1025C120.666 33.1475 120.479 33.275 120.479 33.485C120.479 33.725 120.689 33.8975 121.109 34.0025C121.544 34.1075 122.121 34.2725 122.841 34.4975C123.651 34.7375 124.281 35 124.731 35.285C125.196 35.57 125.519 35.915 125.699 36.32C125.894 36.725 125.991 37.2275 125.991 37.8275C125.991 38.9075 125.549 39.7475 124.664 40.3475C123.794 40.9325 122.496 41.225 120.771 41.225ZM133.116 41.225C131.871 41.225 130.768 41.0225 129.808 40.6175C128.863 40.1975 128.121 39.575 127.581 38.75C127.056 37.925 126.793 36.905 126.793 35.69C126.793 33.995 127.273 32.645 128.233 31.64C129.193 30.62 130.626 30.11 132.531 30.11C134.271 30.11 135.628 30.5525 136.603 31.4375C137.593 32.3225 138.088 33.53 138.088 35.06V36.9275H130.686C130.881 37.4975 131.263 37.9025 131.833 38.1425C132.403 38.3825 133.176 38.5025 134.151 38.5025C134.766 38.5025 135.381 38.45 135.996 38.345C136.626 38.225 137.128 38.09 137.503 37.94V40.4825C136.453 40.9775 134.991 41.225 133.116 41.225ZM130.686 34.6325H134.443V34.25C134.443 33.83 134.308 33.485 134.038 33.215C133.783 32.945 133.326 32.81 132.666 32.81C131.931 32.81 131.413 32.9675 131.113 33.2825C130.828 33.5825 130.686 34.0325 130.686 34.6325ZM139.658 41V30.335H143.731L143.843 31.19C144.278 30.935 144.833 30.7025 145.508 30.4925C146.183 30.2825 146.866 30.155 147.556 30.11V33.26C147.166 33.29 146.738 33.3425 146.273 33.4175C145.823 33.4925 145.381 33.59 144.946 33.71C144.526 33.815 144.173 33.935 143.888 34.07V41H139.658ZM151.404 41.225C150.729 41.225 150.099 41.105 149.514 40.865C148.944 40.625 148.486 40.25 148.141 39.74C147.796 39.23 147.624 38.585 147.624 37.805C147.624 36.68 147.999 35.81 148.749 35.195C149.499 34.565 150.631 34.25 152.146 34.25H154.914V34.0475C154.914 33.6275 154.741 33.32 154.396 33.125C154.051 32.93 153.444 32.8325 152.574 32.8325C151.344 32.8325 150.129 33.02 148.929 33.395V30.8525C149.469 30.6425 150.144 30.47 150.954 30.335C151.764 30.185 152.589 30.11 153.429 30.11C155.124 30.11 156.466 30.455 157.456 31.145C158.446 31.835 158.941 32.93 158.941 34.43V41H155.251L155.049 40.145C154.674 40.475 154.186 40.7375 153.586 40.9325C153.001 41.1275 152.274 41.225 151.404 41.225ZM152.844 38.75C153.324 38.75 153.729 38.6675 154.059 38.5025C154.404 38.3375 154.689 38.135 154.914 37.895V36.5675H152.866C151.936 36.5675 151.471 36.935 151.471 37.67C151.471 38.39 151.929 38.75 152.844 38.75ZM166.689 41.225C164.754 41.225 163.224 40.7675 162.099 39.8525C160.974 38.9225 160.412 37.5275 160.412 35.6675C160.412 34.4075 160.674 33.365 161.199 32.54C161.724 31.715 162.459 31.1075 163.404 30.7175C164.349 30.3125 165.452 30.11 166.712 30.11C167.507 30.11 168.219 30.17 168.849 30.29C169.479 30.395 170.079 30.5825 170.649 30.8525V33.8225C169.764 33.4025 168.759 33.1925 167.634 33.1925C166.674 33.1925 165.947 33.3725 165.452 33.7325C164.972 34.0925 164.732 34.7375 164.732 35.6675C164.732 36.5375 164.964 37.1675 165.429 37.5575C165.894 37.9475 166.629 38.1425 167.634 38.1425C168.174 38.1425 168.699 38.0825 169.209 37.9625C169.719 37.8275 170.207 37.64 170.672 37.4V40.505C170.102 40.76 169.487 40.94 168.827 41.045C168.182 41.165 167.469 41.225 166.689 41.225ZM176.811 41.225C175.386 41.225 174.351 40.865 173.706 40.145C173.061 39.425 172.738 38.45 172.738 37.22V33.4625H171.343V30.335H172.738V28.1525L176.968 27.14V30.335H179.421L179.263 33.4625H176.968V36.905C176.968 37.355 177.081 37.6775 177.306 37.8725C177.531 38.0525 177.876 38.1425 178.341 38.1425C178.776 38.1425 179.218 38.0675 179.668 37.9175V40.73C178.873 41.06 177.921 41.225 176.811 41.225ZM192.875 41.225C190.295 41.225 188.33 40.595 186.98 39.335C185.63 38.06 184.955 36.245 184.955 33.89C184.955 31.46 185.653 29.585 187.048 28.265C188.443 26.945 190.483 26.285 193.168 26.285C194.068 26.285 194.878 26.3375 195.598 26.4425C196.333 26.5475 197.023 26.705 197.668 26.915V30.5375C197.008 30.2825 196.325 30.11 195.62 30.02C194.915 29.93 194.195 29.885 193.46 29.885C192.065 29.885 191.015 30.2 190.31 30.83C189.62 31.46 189.275 32.48 189.275 33.89C189.275 35.21 189.575 36.1625 190.175 36.7475C190.79 37.3325 191.69 37.625 192.875 37.625C193.265 37.625 193.633 37.6025 193.978 37.5575C194.323 37.4975 194.645 37.4225 194.945 37.3325V35.2175H192.065V32.6075H198.478V39.8975C197.923 40.2425 197.18 40.55 196.25 40.82C195.335 41.09 194.21 41.225 192.875 41.225ZM200.061 41V30.335H204.133L204.246 31.19C204.681 30.935 205.236 30.7025 205.911 30.4925C206.586 30.2825 207.268 30.155 207.958 30.11V33.26C207.568 33.29 207.141 33.3425 206.676 33.4175C206.226 33.4925 205.783 33.59 205.348 33.71C204.928 33.815 204.576 33.935 204.291 34.07V41H200.061ZM214.501 41.225C212.371 41.225 210.796 40.7525 209.776 39.8075C208.771 38.8625 208.268 37.4825 208.268 35.6675C208.268 33.8675 208.778 32.495 209.798 31.55C210.818 30.59 212.386 30.11 214.501 30.11C216.631 30.11 218.206 30.59 219.226 31.55C220.261 32.495 220.778 33.8675 220.778 35.6675C220.778 37.4825 220.268 38.8625 219.248 39.8075C218.228 40.7525 216.646 41.225 214.501 41.225ZM214.501 38.1425C215.191 38.1425 215.686 37.9475 215.986 37.5575C216.301 37.1675 216.458 36.5375 216.458 35.6675C216.458 34.8125 216.301 34.19 215.986 33.8C215.686 33.395 215.191 33.1925 214.501 33.1925C213.826 33.1925 213.338 33.395 213.038 33.8C212.738 34.19 212.588 34.8125 212.588 35.6675C212.588 36.5375 212.738 37.1675 213.038 37.5575C213.338 37.9475 213.826 38.1425 214.501 38.1425ZM226.233 41.225C224.988 41.225 224.013 40.8725 223.308 40.1675C222.603 39.4625 222.251 38.4275 222.251 37.0625V30.335H226.481V36.725C226.481 37.655 226.953 38.12 227.898 38.12C228.243 38.12 228.581 38.045 228.911 37.895C229.241 37.745 229.503 37.5575 229.698 37.3325V30.335H233.928V41H229.968L229.856 40.19C229.436 40.49 228.918 40.7375 228.303 40.9325C227.703 41.1275 227.013 41.225 226.233 41.225ZM235.942 45.86V30.335H239.61L239.812 31.19C240.247 30.845 240.72 30.5825 241.23 30.4025C241.755 30.2075 242.362 30.11 243.052 30.11C244.642 30.11 245.865 30.515 246.72 31.325C247.59 32.12 248.025 33.4775 248.025 35.3975C248.025 37.3025 247.567 38.75 246.652 39.74C245.737 40.73 244.477 41.225 242.872 41.225C241.807 41.225 240.907 41.0225 240.172 40.6175V45.86H235.942ZM241.792 38.1425C242.407 38.1425 242.88 37.925 243.21 37.49C243.54 37.055 243.705 36.38 243.705 35.465C243.705 34.58 243.547 33.98 243.232 33.665C242.932 33.35 242.467 33.1925 241.837 33.1925C241.207 33.1925 240.652 33.4025 240.172 33.8225V37.6025C240.412 37.7825 240.652 37.9175 240.892 38.0075C241.132 38.0975 241.432 38.1425 241.792 38.1425ZM261.243 41.225C260.208 41.225 259.241 41.03 258.341 40.64C257.441 40.25 256.646 39.7175 255.956 39.0425C255.281 38.3525 254.748 37.5575 254.358 36.6575C253.968 35.7575 253.773 34.79 253.773 33.755C253.773 32.72 253.968 31.7525 254.358 30.8525C254.748 29.9525 255.281 29.165 255.956 28.49C256.646 27.8 257.441 27.26 258.341 26.87C259.241 26.48 260.208 26.285 261.243 26.285C262.278 26.285 263.246 26.48 264.146 26.87C265.046 27.26 265.833 27.8 266.508 28.49C267.198 29.165 267.738 29.9525 268.128 30.8525C268.518 31.7525 268.713 32.72 268.713 33.755C268.713 34.79 268.518 35.7575 268.128 36.6575C267.738 37.5575 267.198 38.3525 266.508 39.0425C265.833 39.7175 265.046 40.25 264.146 40.64C263.246 41.03 262.278 41.225 261.243 41.225ZM261.243 39.065C262.233 39.065 263.118 38.84 263.898 38.39C264.678 37.94 265.293 37.3175 265.743 36.5225C266.208 35.7125 266.441 34.79 266.441 33.755C266.441 32.72 266.208 31.805 265.743 31.01C265.293 30.215 264.678 29.5925 263.898 29.1425C263.118 28.6925 262.233 28.4675 261.243 28.4675C260.268 28.4675 259.383 28.6925 258.588 29.1425C257.808 29.5925 257.186 30.215 256.721 31.01C256.271 31.805 256.046 32.72 256.046 33.755C256.046 34.79 256.271 35.7125 256.721 36.5225C257.186 37.3175 257.808 37.94 258.588 38.39C259.383 38.84 260.268 39.065 261.243 39.065ZM258.071 37.67V29.75H262.278C263.208 29.75 263.906 30.005 264.371 30.515C264.836 31.025 265.068 31.6775 265.068 32.4725C265.068 33.0725 264.926 33.5825 264.641 34.0025C264.356 34.4075 263.966 34.7075 263.471 34.9025C263.636 35.0525 263.771 35.27 263.876 35.555L264.663 37.67H262.481L261.783 35.6225C261.723 35.4725 261.641 35.3675 261.536 35.3075C261.446 35.2475 261.288 35.2175 261.063 35.2175H260.343V37.67H258.071ZM260.343 33.5075H261.356C261.791 33.5075 262.136 33.4475 262.391 33.3275C262.661 33.2075 262.796 32.9225 262.796 32.4725C262.796 32.0525 262.683 31.7825 262.458 31.6625C262.233 31.5275 261.903 31.46 261.468 31.46H260.343V33.5075Z" fill="#FF7EAF"/>
</svg>
